<svg width="32" height="32" viewBox="0 0 32 32" fill="none" xmlns="http://www.w3.org/2000/svg">
<rect width="32" height="32" fill="white"/>
<path d="M15.5652 0L12.3798 24.8337H9.9595L7.81737 8.01774L5.60569 24.8337H3.19928L0 0H2.33687L4.53463 17.4545L6.82977 0H8.91625L11.1418 17.5964L13.4092 0H15.5652Z" fill="#141517"/>
<path d="M19.1317 5.46341C20.2908 5.46341 21.1811 6.17295 21.8024 7.59202C22.4237 8.98744 22.7343 11.1042 22.7343 13.9423V24.8337H20.7035V22.4568C20.2955 24.2306 19.5351 25.1175 18.4223 25.1175C17.8473 25.1175 17.3466 24.8692 16.92 24.3725C16.5027 23.8758 16.1828 23.1899 15.9602 22.3149C15.7377 21.4398 15.6264 20.4464 15.6264 19.3348C15.6264 17.561 15.886 16.1656 16.4053 15.1486C16.9339 14.1316 17.7453 13.6231 18.8396 13.6231H20.5644C20.5644 12.4169 20.4207 11.4945 20.1332 10.8559C19.8457 10.1936 19.4145 9.86253 18.8396 9.86253C18.4408 9.86253 18.0467 10.0281 17.6572 10.3592C17.277 10.6667 16.9525 11.0924 16.6835 11.6364L15.9046 7.7694C16.3126 7.03622 16.7994 6.46859 17.3651 6.06652C17.9401 5.66445 18.5289 5.46341 19.1317 5.46341ZM18.9647 21.3925C19.3357 21.3925 19.6649 21.1796 19.9524 20.7539C20.2398 20.3045 20.4438 19.6541 20.5644 18.8027V16.8514H19.076C18.1858 16.8514 17.7407 17.5965 17.7407 19.0865C17.7407 19.796 17.8473 20.3636 18.0606 20.7894C18.2832 21.1914 18.5845 21.3925 18.9647 21.3925Z" fill="#141517"/>
<path d="M31.9903 5.74723L28.6102 26.0044C28.2671 28.204 27.8405 29.7531 27.3305 30.6519C26.8297 31.5506 26.2223 32 25.5083 32C25.1188 32 24.734 31.8463 24.3538 31.5388C23.9736 31.2313 23.6629 30.8056 23.4218 30.2616L24.2147 26.3237C24.3816 26.7021 24.5717 26.9978 24.785 27.2106C25.0075 27.4235 25.2254 27.5299 25.4387 27.5299C25.7355 27.5299 25.9766 27.3407 26.162 26.9623C26.3475 26.6075 26.5144 26.0044 26.6628 25.153L26.6906 24.9756L23.4496 5.74723H25.6891L27.7895 18.6962L29.9038 5.74723H31.9903Z" fill="#141517"/>
<path d="M32 5.74573L28.6199 26.0029C28.2768 28.2025 27.8502 29.7516 27.3402 30.6504C26.8394 31.5491 26.232 31.9985 25.518 31.9985C25.1285 31.9985 24.7437 31.8448 24.3635 31.5373C23.9833 31.2298 23.6726 30.8041 23.4315 30.2601L24.2244 26.3222C24.3913 26.7006 24.5814 26.9963 24.7947 27.2091C25.0172 27.422 25.2351 27.5284 25.4484 27.5284C25.7452 27.5284 25.9863 27.3392 26.1717 26.9608C26.3572 26.606 26.5241 26.0029 26.6725 25.1515L26.7003 24.9741L27.7992 18.6947L29.9135 5.74573H32Z" fill="#FE7865"/>
</svg>
